<?xml version="1.0" standalone="no"?>
<!DOCTYPE svg PUBLIC "-//W3C//DTD SVG 20010904//EN"
 "http://www.w3.org/TR/2001/REC-SVG-20010904/DTD/svg10.dtd">
<svg version="1.0" xmlns="http://www.w3.org/2000/svg"
 width="300.000000pt" height="300.000000pt" viewBox="0 0 300.000000 300.000000"
 preserveAspectRatio="xMidYMid meet">

<g transform="translate(0.000000,300.000000) scale(0.100000,-0.100000)"
fill="#000000" stroke="none">
<path d="M1804 2248 c4 -13 9 -53 13 -90 l6 -68 -491 0 -491 0 -17 -31 c-19
-38 -35 -194 -27 -266 3 -29 7 -53 10 -53 2 0 34 15 71 33 37 19 110 51 162
71 52 21 103 42 113 47 37 20 167 41 283 46 123 6 265 -6 359 -31 l50 -13 -1
-95 c-3 -213 -119 -432 -285 -539 -48 -31 -49 -32 -29 -46 12 -8 92 -49 178
-90 l157 -75 57 61 c152 161 250 380 278 620 6 52 13 98 16 102 6 10 -14 169
-28 224 -7 27 -26 56 -62 91 -47 46 -60 53 -161 81 -170 48 -169 48 -161 21z"/>
</g>
</svg>
